<?xml version="1.0" standalone="no"?><!DOCTYPE svg PUBLIC "-//W3C//DTD SVG 1.1//EN" "http://www.w3.org/Graphics/SVG/1.1/DTD/svg11.dtd"><svg t="1750039724895" class="icon" viewBox="0 0 1024 1024" version="1.1" xmlns="http://www.w3.org/2000/svg" p-id="1501" width="64" height="64" xmlns:xlink="http://www.w3.org/1999/xlink"><path d="M727.38 475.19c-22.47 0-43.45 3.91-62.92 11.8-18.63 7.23-34.91 19.57-47.01 35.64-11.87 15.89-17.81 35.22-17.81 58.03 0 21.52 5.05 38.83 15.2 52.01 10.12 13.15 22.32 23.03 36.57 29.62 13.42 6.2 30.45 12.46 51.17 18.78l7.03 2.17 5.94 1.87 5.64 1.81 5.28 1.75 4.96 1.69 4.63 1.63 4.27 1.57 3.98 1.51 1.84 0.72c9.65 3.85 17.72 9.15 24.22 15.89s9.74 15.26 9.74 25.53c0 12.85-4.84 22.64-14.48 29.38-9.65 6.74-22.71 10.11-39.18 10.11-20.27 0-37.69-4.97-52.24-14.93-14.14-9.81-25.28-23.45-32.14-39.37l-1.1-2.53-56.04 32.27c8.55 27.93 25.82 49.52 51.76 64.78 25.97 15.26 55.09 22.88 87.38 22.88 22.17 0 42.98-3.85 62.45-11.56 18.83-7.22 35.28-19.65 47.49-35.88 12.17-16.22 18.28-36.36 18.28-60.44 0-22.15-5.31-40.03-15.91-53.7-10.11-13.25-23.22-23.82-38.23-30.82-14.87-6.92-33.72-13.73-56.51-20.47l-5.79-1.81-5.49-1.69-5.16-1.69-4.87-1.63-4.57-1.57-4.27-1.51-3.95-1.51-3.65-1.38a67.64 67.64 0 0 1-23.03-14.45c-5.98-5.85-9.25-13.98-9.02-22.4 0-11.89 4.84-21.43 14.48-28.66 9.65-7.22 22.26-10.84 37.75-10.84 17.1 0 31.34 4.24 42.74 12.76 10.77 8.04 19 18.99 24.66 32.9l0.98 2.5 56.04-32.27c-6.32-24.08-20.42-43.19-42.26-57.31-21.86-14.13-48.13-21.18-78.85-21.18z m-421.98 0c-100.68 0-182.29 81.61-182.29 182.29s81.61 182.29 182.29 182.29 182.29-81.61 182.29-182.29-81.61-182.29-182.29-182.29z m-0.01 72.92c39.08 0 75.19 20.84 94.73 54.68 19.54 33.84 19.54 75.54 0 109.38-19.54 33.84-55.65 54.69-94.73 54.68-60.4-0.01-109.36-48.97-109.36-109.38 0-60.39 48.96-109.35 109.36-109.36z" p-id="1502"></path><path d="M435.61 905.75h-250V962h250z" fill="#1E69FE" p-id="1503"></path><path d="M215.52 62h-68.1v340.28h68.1V255.85h154.99v146.43h68.57V62h-68.57v133.88H215.52zM614.66 62h-54.05v340.28H625V181.93l87.89 129.7h35.72l87.42-128.77v219.42h64.86V62h-51.7L732.16 238.18z" p-id="1504"></path></svg>